<?xml version="1.0" encoding="utf-8"?>
<!-- Generator: Adobe Illustrator 17.0.0, SVG Export Plug-In . SVG Version: 6.00 Build 0)  -->
<!DOCTYPE svg PUBLIC "-//W3C//DTD SVG 1.1//EN" "http://www.w3.org/Graphics/SVG/1.1/DTD/svg11.dtd">
<svg version="1.1" id="Layer_1" xmlns="http://www.w3.org/2000/svg" xmlns:xlink="http://www.w3.org/1999/xlink" x="0px" y="0px"
	 width="200px" height="200px" viewBox="0 0 200 200" enable-background="new 0 0 200 200" xml:space="preserve">
<ellipse transform="matrix(0.9709 -0.2395 0.2395 0.9709 -21.7412 29.0587)" fill="#FCFAFB" cx="108.684" cy="103.978" rx="61.45" ry="65.574"/>
<ellipse transform="matrix(0.9709 -0.2395 0.2395 0.9709 -24.5052 25.744)" fill="#E2B2A6" cx="93.664" cy="113.692" rx="64.337" ry="67.989"/>
<ellipse transform="matrix(0.9709 -0.2395 0.2395 0.9709 -23.3292 27.9243)" fill="#FCDFD4" cx="103.223" cy="109.944" rx="59.25" ry="67.62"/>
<ellipse transform="matrix(0.9709 -0.2395 0.2395 0.9709 -23.6699 27.3428)" fill="none" stroke="#000000" stroke-width="5" stroke-miterlimit="10" cx="100.66" cy="111.055" rx="70.936" ry="69.699"/>
<g>
	<g>
		<path fill="#030203" d="M82.237,152.424c12.494-0.214,25.558-3.408,37.245-7.733c10.118-3.744,18.183-11.121,26.043-18.246
			c2.394-2.17-1.153-5.695-3.536-3.536c-7.294,6.611-14.603,13.195-23.837,16.96c-10.93,4.456-24.148,7.353-35.916,7.554
			C79.016,147.479,79.011,152.479,82.237,152.424L82.237,152.424z"/>
	</g>
</g>
<circle fill="#D51771" stroke="#34225C" stroke-width="3" stroke-miterlimit="10" cx="116.933" cy="144.692" r="21.225"/>
<circle fill="#34225C" stroke="#34225C" stroke-width="3" stroke-miterlimit="10" cx="117.308" cy="143.114" r="5.914"/>
<g>
	<g>
		<path d="M72.913,101.127c-0.413-3.366-0.351-7.275,3.543-8.176c3.681-0.851,6.886,2.965,8.312,5.761
			c2.197,4.31,8.668,0.514,6.476-3.785c-3.044-5.972-9.275-10.381-16.18-9.302c-7.523,1.176-10.49,8.652-9.65,15.502
			C65.994,105.864,73.501,105.92,72.913,101.127L72.913,101.127z"/>
	</g>
</g>
<g>
	<g>
		<path d="M117.462,90.44c-1.528-8.103,7.435-6.364,10.373-1.417c2.467,4.153,8.952,0.383,6.476-3.785
			c-3.385-5.698-9.277-8.848-15.877-7.847c-7.295,1.106-9.375,8.839-8.205,15.044C111.126,97.183,118.354,95.166,117.462,90.44
			L117.462,90.44z"/>
	</g>
</g>
<g>
	<g>
		<path d="M97.028,38.007c-8.65-0.927-19.217-2.604-25.715-8.937c-7.479-7.288,4.79-12.844,10.601-13.615
			c4.497-0.597,8.847,0.075,12.979,1.901c2.835,1.253,10.106,5.583,5.74,8.914c-2.896,2.209-6.865,2.422-10.295,1.706
			c-1.131-0.236-2.177-0.671-3.177-1.238c-0.651-0.669-0.782-0.387-0.391,0.845c1.171-0.401,2.501-0.335,3.718-0.362
			c3.219-0.073,3.226-5.073,0-5c-2.652,0.06-10.408,0.704-8.708,5.46c1.499,4.194,6.887,5.274,10.783,5.639
			c5.034,0.471,11.912-1.713,14.077-6.668c2.481-5.68-3.771-10.571-8.004-12.996C88.733,7.98,67.63,8.564,64.355,22.28
			c-3.687,15.446,23.058,19.696,32.672,20.727C100.232,43.351,100.199,38.347,97.028,38.007L97.028,38.007z"/>
	</g>
</g>
</svg>
